<?xml version="1.0" encoding="UTF-8"?>
<svg width="100px" height="100px" viewBox="0 0 100 100" xmlns="http://www.w3.org/2000/svg" xmlns:xlink="http://www.w3.org/1999/xlink" version="1.1">
 <!-- Generated by Pixelmator Pro 1.5.5 -->
 <path id="Traçado" d="M24.6 9.5 L80.6 9.5 C81.7 9.5 82.6 10.4 82.6 11.5 L82.6 71.6 C82.6 72.4 81.9 73.1 81.1 73.1 L80 73.1 80 87.6 81.1 87.6 C81.9 87.6 82.6 88.3 82.6 89.1 82.6 89.9 81.9 90.6 81.1 90.6 L24.6 90.6 C20.6 90.6 17.4 87.4 17.4 83.4 L17.4 16.7 C17.4 12.7 20.6 9.5 24.6 9.5 Z" fill="#849b87" fill-opacity="1" stroke="none"/>
 <g id="group">
  <path id="Traçado-1" d="M27.2 87.5 L80 87.5 80 73 27.2 73 C23.2 73 20 76.2 20 80.2 20 84.3 23.2 87.5 27.2 87.5 Z" fill="#f4e6c8" fill-opacity="1" stroke="none"/>
 </g>
 <g id="group-1">
  <path id="Traçado-2" d="M75 18 L28 18 28 23 75 23 Z" fill="#e0e0e0" fill-opacity="1" stroke="none"/>
  <path id="Traçado-3" d="M75 28 L28 28 28 33 75 33 Z" fill="#e0e0e0" fill-opacity="1" stroke="none"/>
  <path id="Traçado-4" d="M75 38 L28 38 28 43 75 43 Z" fill="#e0e0e0" fill-opacity="1" stroke="none"/>
 </g>
</svg>
