<?xml version="1.0" encoding="UTF-8"?>
<svg width="86px" height="77px" viewBox="0 0 86 77" xmlns="http://www.w3.org/2000/svg" xmlns:xlink="http://www.w3.org/1999/xlink" version="1.1">
 <!-- Generated by Pixelmator Pro 1.5.5 -->
 <g id="group">
  <path id="Traçado" d="M49.68 72.455 L72.862 55.434 C73.628 55.162 74.158 54.257 74.158 53.225 L74.158 3.42 C74.158 1.909 73.053 0.812 71.932 1.211 L49.68 18.601 Z" fill="#e0e0e0" fill-opacity="1" stroke="none"/>
  <path id="Traçado-1" d="M36.32 72.455 L13.138 55.434 C12.372 55.162 11.842 54.257 11.842 53.225 L11.842 3.42 C11.842 1.909 12.947 0.812 14.068 1.211 L36.32 18.601 Z" fill="#e0e0e0" fill-opacity="1" stroke="none"/>
 </g>
 <g id="group-1">
  <path id="Traçado-2" d="M49.68 72.455 L79.384 59.44 C80.317 59.171 80.963 58.278 80.963 57.259 L80.963 8.093 C80.963 6.602 79.616 5.519 78.251 5.912 L49.68 18.601 Z" fill="#c9c9c9" fill-opacity="1" stroke="none"/>
  <path id="Traçado-3" d="M36.32 72.455 L6.616 59.44 C5.683 59.171 5.036 58.278 5.036 57.259 L5.036 8.093 C5.036 6.602 6.383 5.519 7.748 5.912 L36.32 18.601 Z" fill="#c9c9c9" fill-opacity="1" stroke="none"/>
 </g>
 <g id="group-2">
  <path id="Traçado-4" d="M46.481 75.519 L39.518 75.519 C37.751 75.519 36.319 74.087 36.319 72.32 L36.319 19.408 C36.319 18.56 36.656 17.746 37.256 17.146 37.856 16.546 38.67 16.209 39.518 16.209 L46.481 16.209 C48.248 16.209 49.68 17.641 49.68 19.408 L49.68 72.32 C49.68 74.087 48.248 75.519 46.481 75.519 Z" fill="#77a4bd" fill-opacity="1" stroke="none"/>
  <path id="Traçado-5" d="M49.68 72.455 L81.336 63.795 C82.319 63.526 83 62.633 83 61.614 L83 12.448 C83 11.743 82.671 11.079 82.111 10.651 81.551 10.223 80.823 10.081 80.143 10.267 L49.68 18.601 Z" fill="#a0c8d7" fill-opacity="1" stroke="none"/>
  <path id="Traçado-6" d="M36.32 72.455 L4.664 63.795 C3.681 63.526 3 62.633 3 61.614 L3 12.448 C3 11.743 3.329 11.079 3.889 10.651 4.449 10.223 5.177 10.081 5.857 10.267 L36.319 18.601 36.319 72.455 Z" fill="#a0c8d7" fill-opacity="1" stroke="none"/>
 </g>
</svg>
